<?xml version="1.0" encoding="UTF-8"?>
<!DOCTYPE svg PUBLIC "-//W3C//DTD SVG 1.1//EN" "http://www.w3.org/Graphics/SVG/1.1/DTD/svg11.dtd">
<!-- Creator: CorelDRAW -->
<svg xmlns="http://www.w3.org/2000/svg" xml:space="preserve" width="2.66666in" height="2.66666in" version="1.1" style="shape-rendering:geometricPrecision; text-rendering:geometricPrecision; image-rendering:optimizeQuality; fill-rule:evenodd; clip-rule:evenodd"
viewBox="0 0 2667 2667"
 xmlns:xlink="http://www.w3.org/1999/xlink">
 <defs>
  <style type="text/css">
   <![CDATA[
    .fil0 {fill:#356EC6}
    .fil1 {fill:url(#id0)}
   ]]>
  </style>
  <linearGradient id="id0" gradientUnits="userSpaceOnUse" x1="480.35" y1="1333.33" x2="2186.31" y2="1333.33">
   <stop offset="0" style="stop-opacity:1; stop-color:#EFF4FB"/>
   <stop offset="1" style="stop-opacity:1; stop-color:#78A1DE"/>
  </linearGradient>
 </defs>
 <rect class="fil0" width="2667" height="2667" rx="1333" ry="1333"/>
 <g id="Layer_x0020_1">
  <metadata id="CorelCorpID_0Corel-Layer"/>
  <path class="fil1" d="M1736 1985c-6,0 -11,-2 -16,-7l-86 -86 0 0 0 0 -1 0 -85 -86 -1 0 0 -1 -86 -86 0 0 -86 -86 0 0 -1 -1 -86 -85 0 -1 -172 -172 -1 0 0 -1 -86 -85 0 -1 -1 0 -84 -85 -1 0 0 -1 -83 -83 0 0 0 0 -88 -88 0 0 0 0 -88 -88c-9,-9 -9,-23 0,-32l347 -347c9,-9 23,-9 32,0 9,8 9,23 0,32l-331 331 56 56 331 -331c9,-9 23,-9 32,0 9,8 9,23 0,32l-331 331 56 56 331 -331c9,-9 23,-9 32,0 9,8 9,23 0,32l-331 331 52 52 331 -332c9,-9 23,-9 32,0 9,9 9,24 0,32l-331 332 53 53 331 -331c9,-9 23,-9 32,0 9,9 9,23 0,32l-331 331 54 54 332 -331c8,-9 23,-9 32,0 8,9 8,23 0,32l-332 331 55 55 331 -331c9,-9 23,-9 32,0 9,8 9,23 0,32l-331 331 54 54 331 -331c9,-9 24,-9 32,0 9,9 9,23 0,32l-331 331 55 55 331 -332c9,-8 23,-8 32,0 9,9 9,24 0,33l-331 331 54 54 331 -331c9,-9 23,-9 32,0 9,9 9,23 0,32l-331 331 54 54 332 -331c8,-9 23,-9 32,0 9,9 9,23 0,32l-331 331 54 55 331 -331c9,-9 23,-9 32,0 9,8 9,23 0,32l-331 331 54 54 331 -331c9,-9 24,-9 32,0 9,9 9,23 0,32l-346 347 -1 0c-1,2 -2,3 -4,4l0 0 0 0 0 0 -1 0 0 0 0 0 0 0 0 0 0 0 0 1 0 0 -1 0 0 0 0 0 0 0 0 0 0 0 0 0 -1 0 0 0 0 0 0 0 0 0 -1 0 0 1 0 0 0 0 0 0 -1 0 0 0 0 0 0 0 -1 0 0 0 0 0 0 0 0 0 -1 0 0 0 0 1 0 0 -1 0 0 0 0 0 0 0 -1 0 0 0 0 0 0 0 -1 0 0 0 0 0 0 0 -1 0 0 0 0 0 -1 0 0 0zm-302 -125c-6,0 -11,-2 -16,-6l-605 -606c-9,-8 -9,-23 0,-32 9,-9 23,-9 32,0l605 606c9,8 9,23 0,32 -4,4 -10,6 -16,6zm205 327c-40,0 -81,-16 -112,-47l-1000 -1000c-62,-62 -62,-163 0,-225l428 -428c9,-9 23,-9 32,0 9,9 9,23 0,32l-428 428c-44,45 -44,116 0,161l1001 1000c43,44 115,44 158,0l430 -429c8,-9 23,-9 32,0 9,9 9,23 0,32l-429 429c-31,31 -72,47 -112,47z"/>
 </g>
</svg>
